<svg xmlns="http://www.w3.org/2000/svg" viewBox="0 0 600 600" width="600" height="600" role="img"><rect width="600" height="600" fill="#dcebdf"/><ellipse cx="300" cy="566" rx="120" ry="14" fill="rgba(0,0,0,.12)"/><g transform="translate(300 440) rotate(-160)"><path d="M0 0 C 52.5 -78.0 157.5 -78.0 210.0 0 C 157.5 78.0 52.5 78.0 0 0 Z" fill="#2f7a4b"/><path d="M0 0 L193.2 0" stroke="rgba(255,255,255,.35)" stroke-width="2.5" fill="none"/></g><g transform="translate(300 440) rotate(-135)"><path d="M0 0 C 62.5 -90.0 187.5 -90.0 250.0 0 C 187.5 90.0 62.5 90.0 0 0 Z" fill="#3f8f5b"/><path d="M0 0 L230.0 0" stroke="rgba(255,255,255,.35)" stroke-width="2.5" fill="none"/></g><g transform="translate(300 440) rotate(-108)"><path d="M0 0 C 67.5 -96.0 202.5 -96.0 270.0 0 C 202.5 96.0 67.5 96.0 0 0 Z" fill="#2f7a4b"/><path d="M0 0 L248.4 0" stroke="rgba(255,255,255,.35)" stroke-width="2.5" fill="none"/></g><g transform="translate(300 440) rotate(-80)"><path d="M0 0 C 65.0 -92.0 195.0 -92.0 260.0 0 C 195.0 92.0 65.0 92.0 0 0 Z" fill="#3f8f5b"/><path d="M0 0 L239.2 0" stroke="rgba(255,255,255,.35)" stroke-width="2.5" fill="none"/></g><g transform="translate(300 440) rotate(-52)"><path d="M0 0 C 60.0 -86.0 180.0 -86.0 240.0 0 C 180.0 86.0 60.0 86.0 0 0 Z" fill="#2f7a4b"/><path d="M0 0 L220.8 0" stroke="rgba(255,255,255,.35)" stroke-width="2.5" fill="none"/></g><g transform="translate(300 440) rotate(-25)"><path d="M0 0 C 50.0 -74.0 150.0 -74.0 200.0 0 C 150.0 74.0 50.0 74.0 0 0 Z" fill="#5aa876"/><path d="M0 0 L184.0 0" stroke="rgba(255,255,255,.35)" stroke-width="2.5" fill="none"/></g><path d="M205.0 444 L395.0 444 L370.0 560 L230.0 560 Z" fill="#b9743f"/><rect x="198.0" y="430" width="204" height="18" rx="7" fill="#9c5c2f"/></svg>